<?xml version="1.0" encoding="UTF-8" standalone="no"?>
<!-- Created with Inkscape (http://www.inkscape.org/) -->

<svg
   xmlns:dc="http://purl.org/dc/elements/1.1/"
   xmlns:cc="http://creativecommons.org/ns#"
   xmlns:rdf="http://www.w3.org/1999/02/22-rdf-syntax-ns#"
   xmlns:svg="http://www.w3.org/2000/svg"
   xmlns="http://www.w3.org/2000/svg"
   xmlns:sodipodi="http://sodipodi.sourceforge.net/DTD/sodipodi-0.dtd"
   xmlns:inkscape="http://www.inkscape.org/namespaces/inkscape"
   width="210mm"
   height="297mm"
   viewBox="0 0 210 297"
   version="1.1"
   id="svg8"
   inkscape:version="0.92.0 r15299"
   sodipodi:docname="central software 2 - Copy.svg"
   inkscape:export-filename="D:\kontes\porrtofolio\central software 2 - Copy.png"
   inkscape:export-xdpi="400.00229"
   inkscape:export-ydpi="400.00229">
  <defs
     id="defs2" />
  <sodipodi:namedview
     id="base"
     pagecolor="#ffffff"
     bordercolor="#666666"
     borderopacity="1.0"
     inkscape:pageopacity="0.0"
     inkscape:pageshadow="2"
     inkscape:zoom="0.5532298"
     inkscape:cx="664.17099"
     inkscape:cy="496.23423"
     inkscape:document-units="mm"
     inkscape:current-layer="layer1"
     showgrid="false"
     inkscape:window-width="1366"
     inkscape:window-height="705"
     inkscape:window-x="-8"
     inkscape:window-y="-8"
     inkscape:window-maximized="1"
     inkscape:snap-global="false" />
  <metadata
     id="metadata5">
    <rdf:RDF>
      <cc:Work
         rdf:about="">
        <dc:format>image/svg+xml</dc:format>
        <dc:type
           rdf:resource="http://purl.org/dc/dcmitype/StillImage" />
        <dc:title />
      </cc:Work>
    </rdf:RDF>
  </metadata>
  <g
     inkscape:label="Layer 1"
     inkscape:groupmode="layer"
     id="layer1">
    <path
       style="color:#000000;font-style:normal;font-variant:normal;font-weight:normal;font-stretch:normal;font-size:medium;line-height:normal;font-family:sans-serif;font-variant-ligatures:normal;font-variant-position:normal;font-variant-caps:normal;font-variant-numeric:normal;font-variant-alternates:normal;font-feature-settings:normal;text-indent:0;text-align:start;text-decoration:none;text-decoration-line:none;text-decoration-style:solid;text-decoration-color:#000000;letter-spacing:normal;word-spacing:normal;text-transform:none;writing-mode:lr-tb;direction:ltr;text-orientation:mixed;dominant-baseline:auto;baseline-shift:baseline;text-anchor:start;white-space:normal;shape-padding:0;clip-rule:nonzero;display:inline;overflow:visible;visibility:visible;opacity:1;isolation:auto;mix-blend-mode:normal;color-interpolation:sRGB;color-interpolation-filters:linearRGB;solid-color:#000000;solid-opacity:1;vector-effect:none;fill:#00a3f6;fill-opacity:1;fill-rule:nonzero;stroke:none;stroke-width:2.64209914;stroke-linecap:butt;stroke-linejoin:miter;stroke-miterlimit:4;stroke-dasharray:none;stroke-dashoffset:0;stroke-opacity:1;color-rendering:auto;image-rendering:auto;shape-rendering:auto;text-rendering:auto;enable-background:accumulate"
       d="m 48.373244,58.595454 c -3.525609,-0.113348 -6.791794,2.488978 -9.026015,7.051164 -2.234224,4.562209 -3.590757,11.219409 -3.424486,19.992759 l 0.01076,19.780023 H 38.5754 L 38.56464,85.599987 v -0.0108 c -0.160584,-8.47271 1.184537,-14.75796 3.153983,-18.77948 1.969432,-4.021517 4.408594,-5.644774 6.570584,-5.575286 2.16199,0.06951 4.638033,1.877853 6.581086,6.142526 1.943038,4.26469 3.232087,10.84381 2.993787,19.71438 l 2.639262,0.0709 c 0.246018,-9.15799 -1.048248,-16.09148 -3.230138,-20.88039 -2.181889,-4.788908 -5.374365,-7.573358 -8.899961,-7.686692 z"
       id="path1199"
       inkscape:connector-curvature="0"
       inkscape:export-xdpi="400.00229"
       inkscape:export-ydpi="400.00229" />
    <path
       style="fill:#80ce00;stroke-width:0.30010477"
       d="M 22.00798,85.948767 17.411673,140.63405 H 30.55787 66.486884 79.633081 L 75.03677,85.948767 H 66.486884 41.161685 l 0.0094,16.635643 c 5.195604,1.79706 8.917454,6.8733 8.917454,12.74876 v 9.22041 c 0,7.34447 -5.813061,13.44567 -13.054486,13.44567 -7.241422,0 -13.054483,-6.10142 -13.054483,-13.44567 v -9.22041 c 0,-6.03841 3.930851,-11.23351 9.353124,-12.89119 l -0.0081,-16.493213 h -2.767508 z m 7.618124,34.925673 v 3.67914 c 0,4.42511 3.313945,7.79947 7.408284,7.79947 4.094342,0 7.405504,-3.37457 7.405504,-7.79947 v -3.64786 l -7.30337,4.19885 z"
       id="rect46"
       inkscape:connector-curvature="0"
       sodipodi:nodetypes="cccccccccssssscccccsssccc"
       inkscape:export-xdpi="400.00229"
       inkscape:export-ydpi="400.00229" />
    <path
       style="fill:#00a3f6;stroke-width:0.37132046"
       d="m 37.033205,104.7107 c -5.667874,0 -10.230692,4.73789 -10.230692,10.62258 v 9.2204 c 0,5.88469 4.562818,10.62257 10.230692,10.62257 5.66789,0 10.23138,-4.73788 10.23138,-10.62257 v -9.2204 c 0,-5.88469 -4.56349,-10.62258 -10.23138,-10.62258 z m 0,1.48903 c 4.849189,0 8.753485,4.053 8.753485,9.08769 v 3.72151 l -8.664541,2.84603 -8.841728,-2.84603 v -3.72151 c 0,-5.03469 3.903597,-9.08769 8.752784,-9.08769 z"
       id="rect166-4"
       inkscape:connector-curvature="0"
       sodipodi:nodetypes="ssssssssscccss"
       inkscape:export-xdpi="400.00229"
       inkscape:export-ydpi="400.00229" />
    <path
       style="fill:#00a3f6;stroke-width:0.23104662"
       d="m 36.351288,107.66618 c -3.526725,0 -6.365846,2.94804 -6.365846,6.60967 v 3.58851 l 6.431555,2.13452 v -12.33097 c -0.02192,-2.2e-4 -0.0437,-0.003 -0.06575,-0.003 z"
       id="rect166"
       inkscape:connector-curvature="0"
       sodipodi:nodetypes="csccccc"
       inkscape:export-xdpi="400.00229"
       inkscape:export-ydpi="400.00229" />
    <g
       aria-label="central 
 software"
       style="font-style:normal;font-weight:normal;font-size:26.6938076px;line-height:16.68362808px;font-family:sans-serif;letter-spacing:0px;word-spacing:0px;fill:#000000;fill-opacity:1;stroke:none;stroke-width:0.66734517"
       id="text1267">
      <path
         d="m 87.20793,103.09279 q 0,2.60682 2.606817,2.60682 h 5.213634 v 1.3034 h -5.213634 q -3.910226,0 -3.910226,-3.91022 v -5.213636 q 0,-3.910226 3.910226,-3.910226 h 5.213634 v 1.303408 h -5.213634 q -2.606817,0 -2.606817,2.606818 z"
         style="font-style:normal;font-variant:normal;font-weight:normal;font-stretch:normal;line-height:23.58564758px;font-family:'Aero Matics Light';-inkscape-font-specification:'Aero Matics Light, ';stroke-width:0.66734517"
         id="path122" />
      <path
         d="m 98.938607,101.13768 v 1.95511 q 0,2.60682 2.606813,2.60682 h 5.86534 v 1.3034 h -5.86534 q -3.910221,0 -3.910221,-3.91022 v -5.213636 q 0,-3.910226 3.910221,-3.910226 h 2.60682 q 3.91023,0 3.91023,3.910226 v 3.258526 z m 0,-1.303414 h 7.820453 v -1.955112 q 0,-2.606818 -2.60682,-2.606818 h -2.60682 q -2.606813,0 -2.606813,2.606818 z"
         style="font-style:normal;font-variant:normal;font-weight:normal;font-stretch:normal;line-height:23.58564758px;font-family:'Aero Matics Light';-inkscape-font-specification:'Aero Matics Light, ';stroke-width:0.66734517"
         id="path124" />
      <path
         d="m 111.58167,93.968928 0.39102,1.303408 q 1.30341,-1.303408 3.91023,-1.303408 h 1.30341 q 3.91022,0 3.91022,3.910226 v 9.123856 h -1.30341 v -9.123856 q 0,-2.606818 -2.60681,-2.606818 h -1.30341 q -2.60682,0 -3.91023,1.303409 v 10.427265 h -1.30341 V 93.968928 Z"
         style="font-style:normal;font-variant:normal;font-weight:normal;font-stretch:normal;line-height:23.58564758px;font-family:'Aero Matics Light';-inkscape-font-specification:'Aero Matics Light, ';stroke-width:0.66734517"
         id="path126" />
      <path
         d="m 126.96189,93.968928 h 4.56193 v 1.303408 h -4.56193 v 7.820454 q 0,2.60682 2.60682,2.60682 h 1.95511 v 1.3034 h -1.95511 q -3.91023,0 -3.91023,-3.91022 v -7.820454 h -1.95511 v -1.303408 h 1.95511 v -3.910226 l 1.30341,-1.303408 z"
         style="font-style:normal;font-variant:normal;font-weight:normal;font-stretch:normal;line-height:23.58564758px;font-family:'Aero Matics Light';-inkscape-font-specification:'Aero Matics Light, ';stroke-width:0.66734517"
         id="path128" />
      <path
         d="M 134.13064,107.00301 V 93.968928 h 0.91238 l 0.39103,1.303408 q 1.3034,-1.303408 3.91022,-1.303408 v 1.303408 q -2.60682,0 -3.91022,1.303409 v 10.427265 z"
         style="font-style:normal;font-variant:normal;font-weight:normal;font-stretch:normal;line-height:23.58564758px;font-family:'Aero Matics Light';-inkscape-font-specification:'Aero Matics Light, ';stroke-width:0.66734517"
         id="path130" />
      <path
         d="m 150.44931,99.182562 q 0,-3.910226 -3.91022,-3.910226 h -3.91023 v -1.303408 h 3.91023 q 5.21363,0 5.21363,5.213634 v 7.820448 h -0.91238 l -0.39103,-1.3034 q -1.3034,1.3034 -3.91022,1.3034 h -1.30341 q -3.91023,0 -3.91023,-3.91022 0,-3.910228 3.91023,-3.910228 h 1.30341 q 2.60682,0 3.91022,1.303408 z m -3.91022,6.517048 q 2.60682,0 3.91022,-1.30341 v -2.60682 q -1.3034,-1.30341 -3.91022,-1.30341 h -1.30341 q -2.60682,0 -2.60682,2.60682 0,2.60682 2.60682,2.60682 z"
         style="font-style:normal;font-variant:normal;font-weight:normal;font-stretch:normal;line-height:23.58564758px;font-family:'Aero Matics Light';-inkscape-font-specification:'Aero Matics Light, ';stroke-width:0.66734517"
         id="path132" />
      <path
         d="m 155.66295,88.755294 v 18.247716 h -1.30341 V 88.755294 Z"
         style="font-style:normal;font-variant:normal;font-weight:normal;font-stretch:normal;line-height:23.58564758px;font-family:'Aero Matics Light';-inkscape-font-specification:'Aero Matics Light, ';stroke-width:0.66734517"
         id="path134" />
      <path
         d="m 91.118155,130.58866 v -1.30341 h 5.865339 q 2.606817,0 2.606817,-2.08545 v -0.52136 q 0,-2.08546 -2.606817,-2.08546 h -1.955113 q -3.910226,0 -3.910226,-3.12818 v -0.52136 q 0,-3.38886 3.910226,-3.38886 h 5.865339 v 1.3034 h -5.865339 q -2.606817,0 -2.606817,2.08546 v 0.52136 q 0,1.82477 2.606817,1.82477 h 1.955113 q 3.910226,0 3.910226,3.38887 v 0.52136 q 0,3.38886 -3.910226,3.38886 z"
         style="font-style:normal;font-variant:normal;font-weight:normal;font-stretch:normal;line-height:23.58564758px;font-family:'Aero Matics Light';-inkscape-font-specification:'Aero Matics Light, ';stroke-width:0.66734517"
         id="path136" />
      <path
         d="m 113.95387,126.67844 q 0,3.91022 -3.91022,3.91022 h -2.60682 q -3.91023,0 -3.91023,-3.91022 v -5.21364 q 0,-3.91022 3.91023,-3.91022 h 2.60682 q 3.91022,0 3.91022,3.91022 z m -9.12386,0 q 0,2.60681 2.60682,2.60681 h 2.60682 q 2.60681,0 2.60681,-2.60681 v -5.21364 q 0,-2.60682 -2.60681,-2.60682 h -2.60682 q -2.60682,0 -2.60682,2.60682 z"
         style="font-style:normal;font-variant:normal;font-weight:normal;font-stretch:normal;line-height:23.58564758px;font-family:'Aero Matics Light';-inkscape-font-specification:'Aero Matics Light, ';stroke-width:0.66734517"
         id="path138" />
      <path
         d="m 119.81921,118.20628 h 4.56193 v 1.30341 h -4.56193 v 11.07897 h -1.30341 v -11.07897 h -1.95511 v -1.30341 h 1.95511 v -1.95511 q 0,-3.91023 3.91023,-3.91023 h 1.95511 v 1.30341 h -1.95511 q -2.60682,0 -2.60682,2.60682 z"
         style="font-style:normal;font-variant:normal;font-weight:normal;font-stretch:normal;line-height:23.58564758px;font-family:'Aero Matics Light';-inkscape-font-specification:'Aero Matics Light, ';stroke-width:0.66734517"
         id="path140" />
      <path
         d="m 130.24648,117.55458 h 4.56193 v 1.3034 h -4.56193 v 7.82046 q 0,2.60681 2.60682,2.60681 h 1.95511 v 1.30341 h -1.95511 q -3.91023,0 -3.91023,-3.91022 v -7.82046 h -1.95511 v -1.3034 h 1.95511 v -3.91023 l 1.30341,-1.30341 z"
         style="font-style:normal;font-variant:normal;font-weight:normal;font-stretch:normal;line-height:23.58564758px;font-family:'Aero Matics Light';-inkscape-font-specification:'Aero Matics Light, ';stroke-width:0.66734517"
         id="path142" />
      <path
         d="m 149.14591,129.28525 3.25852,-11.73067 h 1.30341 l -3.64955,13.03408 h -1.82477 l -2.99784,-10.84436 -2.99784,10.84436 h -1.82477 l -3.64955,-13.03408 h 1.30341 l 3.25852,11.73067 3.25853,-11.73067 h 1.3034 z"
         style="font-style:normal;font-variant:normal;font-weight:normal;font-stretch:normal;line-height:23.58564758px;font-family:'Aero Matics Light';-inkscape-font-specification:'Aero Matics Light, ';stroke-width:0.66734517"
         id="path144" />
      <path
         d="m 164.78681,122.76821 q 0,-3.91023 -3.91022,-3.91023 h -3.91023 v -1.3034 h 3.91023 q 5.21363,0 5.21363,5.21363 v 7.82045 h -0.91239 l -0.39102,-1.30341 q -1.30341,1.30341 -3.91022,1.30341 h -1.30341 q -3.91023,0 -3.91023,-3.91022 0,-3.91023 3.91023,-3.91023 h 1.30341 q 2.60681,0 3.91022,1.30341 z m -3.91022,6.51704 q 2.60681,0 3.91022,-1.30341 v -2.60681 q -1.30341,-1.30341 -3.91022,-1.30341 h -1.30341 q -2.60682,0 -2.60682,2.60682 0,2.60681 2.60682,2.60681 z"
         style="font-style:normal;font-variant:normal;font-weight:normal;font-stretch:normal;line-height:23.58564758px;font-family:'Aero Matics Light';-inkscape-font-specification:'Aero Matics Light, ';stroke-width:0.66734517"
         id="path146" />
      <path
         d="m 168.69703,130.58866 v -13.03408 h 0.91239 l 0.39102,1.3034 q 1.30341,-1.3034 3.91023,-1.3034 v 1.3034 q -2.60682,0 -3.91023,1.30341 v 10.42727 z"
         style="font-style:normal;font-variant:normal;font-weight:normal;font-stretch:normal;line-height:23.58564758px;font-family:'Aero Matics Light';-inkscape-font-specification:'Aero Matics Light, ';stroke-width:0.66734517"
         id="path148" />
      <path
         d="m 177.19526,124.72332 v 1.95512 q 0,2.60681 2.60681,2.60681 h 5.86534 v 1.30341 h -5.86534 q -3.91022,0 -3.91022,-3.91022 v -5.21364 q 0,-3.91022 3.91022,-3.91022 h 2.60682 q 3.91023,0 3.91023,3.91022 v 3.25852 z m 0,-1.30341 h 7.82045 v -1.95511 q 0,-2.60682 -2.60682,-2.60682 h -2.60682 q -2.60681,0 -2.60681,2.60682 z"
         style="font-style:normal;font-variant:normal;font-weight:normal;font-stretch:normal;line-height:23.58564758px;font-family:'Aero Matics Light';-inkscape-font-specification:'Aero Matics Light, ';stroke-width:0.66734517"
         id="path150" />
    </g>
    <path
       style="fill:#00a3f6;stroke-width:0.2300707"
       d="m 37.774297,107.66618 c -0.02192,0 -0.04343,0.001 -0.06521,0.003 v 12.33098 l 6.431558,-2.13452 v -3.58851 c 0,-3.66163 -2.839551,-6.60969 -6.366278,-6.60969 z"
       id="rect211"
       inkscape:connector-curvature="0"
       sodipodi:nodetypes="ccccscc"
       inkscape:export-xdpi="400.00229"
       inkscape:export-ydpi="400.00229" />
  </g>
</svg>
